<svg width="55" height="40" viewBox="0 0 55 40" fill="none" xmlns="http://www.w3.org/2000/svg">
<path d="M27.3684 14.9203L36.5698 7.36816H54.7368L47.7767 13.0807H34.5644L31.9291 14.9203H27.3684Z" fill="#FF79E9"/>
<path d="M31.9291 14.9203H41.2885L45.5354 19.9997H35.5081L31.9291 14.9203Z" fill="#FF79E9"/>
<path d="M27.3684 14.9203L18.1669 7.36816H-6.10352e-05L6.96001 13.0807H20.1724L22.8076 14.9203H27.3684Z" fill="#FF79E9"/>
<path d="M22.8076 14.9203H13.4482L9.20139 19.9997H19.2286L22.8076 14.9203Z" fill="#FF79E9"/>
<path d="M26.842 16.8421L23.1578 23.9313L26.842 40L30.5263 23.9313L26.842 16.8421Z" fill="#FF79E9"/>
<path d="M26.842 9.47368L23.1578 4.8145L26.842 0L30.5263 4.8145L26.842 9.47368Z" fill="#FF79E9"/>
</svg>
